<?xml version="1.0" encoding="iso-8859-1"?>
<!-- Generator: Adobe Illustrator 18.0.0, SVG Export Plug-In . SVG Version: 6.00 Build 0)  -->
<!DOCTYPE svg PUBLIC "-//W3C//DTD SVG 1.1//EN" "http://www.w3.org/Graphics/SVG/1.1/DTD/svg11.dtd">
<svg xmlns="http://www.w3.org/2000/svg" xmlns:xlink="http://www.w3.org/1999/xlink" version="1.1" id="Capa_1" x="0px" y="0px" viewBox="0 0 230.077 230.077" style="enable-background:new 0 0 230.077 230.077;" xml:space="preserve" width="512px" height="512px">
<g>
	<path d="M109.714,163.817c-34.732,0-64.579-25.319-70.428-59.29c-15.172-9.31-24.497-25.849-24.497-43.75   c0-28.293,23.018-51.312,51.312-51.312c7.004,0,13.98,1.453,20.39,4.227C95.552,4.948,107.696,0,120.363,0   c21.465,0,40.482,14.313,46.661,34.56c26.866,1.5,48.263,23.831,48.263,51.065c0,27.675-22.093,50.287-49.57,51.122   C152.208,153.744,131.464,163.817,109.714,163.817z" fill="#ffffffaa"/>
</g>
</svg>
